<?xml version="1.0" encoding="UTF-8" standalone="no"?><!DOCTYPE svg PUBLIC "-//W3C//DTD SVG 1.1//EN" "http://www.w3.org/Graphics/SVG/1.1/DTD/svg11.dtd"><svg width="100%" height="100%" viewBox="0 0 1000 1000" version="1.1" xmlns="http://www.w3.org/2000/svg" xmlns:xlink="http://www.w3.org/1999/xlink" xml:space="preserve" xmlns:serif="http://www.serif.com/" style="fill-rule:evenodd;clip-rule:evenodd;stroke-linejoin:round;stroke-miterlimit:2;"><path d="M287.018,35.991c-0.392,1.411 -5.723,18.424 -11.839,37.867c-12.387,39.591 -20.462,65.227 -39.983,127.398c-7.369,23.519 -16.934,53.86 -21.168,67.423c-4.233,13.562 -13.719,43.746 -21.089,67.03c-7.291,23.285 -20.697,66.169 -29.87,95.255c-9.094,29.086 -18.659,59.426 -21.167,67.423c-2.509,7.996 -12.074,38.337 -21.168,67.423c-9.094,29.086 -18.659,59.426 -21.168,67.423c-2.508,7.996 -12.073,38.337 -21.167,67.422c-9.095,29.086 -18.659,59.427 -21.168,67.423c-2.509,7.997 -11.995,38.102 -21.089,67.031c-9.016,28.929 -20.854,66.639 -26.264,83.887c-5.409,17.248 -9.878,31.673 -9.878,32.143c0,0.706 40.767,13.955 45.001,14.661c1.646,0.235 -0.079,5.566 43.276,-132.651c8.859,-28.223 18.188,-57.858 20.697,-65.855c2.509,-7.996 12.074,-38.337 21.168,-67.423c9.173,-29.085 22.579,-71.97 29.948,-95.254c7.291,-23.284 16.778,-53.625 21.089,-67.423c10.819,-34.574 12.544,-39.67 13.093,-39.278c0.314,0.157 6.586,2.196 13.877,4.626c36.141,11.76 88.277,28.772 105.446,34.417c29.556,9.643 55.349,18.032 71.735,23.363c8.232,2.665 15.993,5.566 17.404,6.35c1.333,0.862 4.704,2.274 7.448,3.136c4.861,1.568 23.755,7.761 62.013,20.227c108.583,35.593 161.423,52.605 164.246,52.919c2.273,0.314 208.776,67.188 218.497,70.794c0.47,0.157 2.979,-6.35 5.645,-14.425c2.665,-8.154 16.542,-50.568 30.81,-94.314c14.269,-43.746 28.773,-88.199 32.301,-98.782c3.449,-10.584 9.016,-27.675 12.387,-38.024c14.347,-44.06 19.051,-58.25 24.93,-76.439c27.754,-84.749 40.846,-124.967 40.689,-125.124c-0.078,-0.078 -48.999,-16.15 -108.66,-35.593c-59.74,-19.521 -109.445,-36.063 -110.542,-36.847c-1.098,-0.784 -4.312,-2.117 -7.135,-2.979c-5.252,-1.647 -29.242,-9.487 -62.719,-20.384c-108.504,-35.515 -161.658,-52.684 -163.383,-52.684c-1.176,0 -19.442,-5.645 -40.689,-12.622c-21.167,-6.899 -47.117,-15.366 -57.544,-18.816c-10.506,-3.371 -27.675,-9.016 -38.259,-12.465c-10.584,-3.45 -27.753,-9.095 -38.18,-12.466c-10.505,-3.449 -23.598,-7.683 -29.243,-9.486c-5.566,-1.803 -10.505,-3.606 -10.975,-3.92c-0.392,-0.392 -10.663,-3.685 -22.736,-7.526c-12.074,-3.763 -22.344,-6.978 -22.814,-7.134c-0.549,-0.157 -1.333,0.862 -1.803,2.273Z" style="fill-rule:nonzero;"/></svg>